<svg width="38" height="38" viewBox="0 0 38 38" fill="none" xmlns="http://www.w3.org/2000/svg">
<path d="M19 36C28.3888 36 36 28.3888 36 19C36 9.61116 28.3888 2 19 2C9.61116 2 2 9.61116 2 19C2 28.3888 9.61116 36 19 36Z" stroke="#C0C3C7" stroke-width="3" stroke-linecap="round" stroke-linejoin="round"/>
<path d="M14.2778 17.1111C15.8426 17.1111 17.1111 15.8426 17.1111 14.2778C17.1111 12.713 15.8426 11.4445 14.2778 11.4445C12.713 11.4445 11.4445 12.713 11.4445 14.2778C11.4445 15.8426 12.713 17.1111 14.2778 17.1111Z" fill="#C0C3C7"/>
<path d="M23.7222 17.1111C25.2871 17.1111 26.5556 15.8426 26.5556 14.2778C26.5556 12.713 25.2871 11.4445 23.7222 11.4445C22.1574 11.4445 20.8889 12.713 20.8889 14.2778C20.8889 15.8426 22.1574 17.1111 23.7222 17.1111Z" fill="#C0C3C7"/>
<path d="M13.3333 28.4445C13.3333 27.7003 13.4799 26.9634 13.7647 26.2759C14.0494 25.5885 14.4668 24.9638 14.993 24.4376C15.5193 23.9114 16.144 23.4939 16.8315 23.2093C17.5189 22.9244 18.2558 22.7778 19 22.7778C19.7442 22.7778 20.4811 22.9244 21.1686 23.2093C21.856 23.4939 22.4806 23.9114 23.0069 24.4376C23.5331 24.9638 23.9506 25.5885 24.2352 26.2759C24.5201 26.9634 24.6666 27.7003 24.6666 28.4445H19H13.3333Z" stroke="#C0C3C7" stroke-width="3" stroke-linecap="round" stroke-linejoin="round"/>
</svg>
