<svg width="306" height="125" viewBox="0 0 306 125" fill="none" xmlns="http://www.w3.org/2000/svg">
<g clip-path="url(#clip0_77_1331)">
<rect width="306" height="125" fill="white"/>
<path d="M0 66L33.4394 10L57.0651 47L105.77 10L131.213 37.5L168.288 10H201" stroke="#4692E3" stroke-width="3" stroke-linecap="round"/>
<g clip-path="url(#clip1_77_1331)">
<path d="M2.06963 106.28V97.676H3.04163L3.08963 98.624C3.30563 98.296 3.59763 98.044 3.96563 97.868C4.34163 97.692 4.74563 97.604 5.17763 97.604C5.81763 97.604 6.34163 97.748 6.74963 98.036C7.15763 98.316 7.45763 98.7 7.64963 99.188C7.84963 99.676 7.94963 100.228 7.94963 100.844C7.94963 101.46 7.84963 102.012 7.64963 102.5C7.44963 102.988 7.14163 103.372 6.72563 103.652C6.30963 103.932 5.77763 104.072 5.12963 104.072C4.80963 104.072 4.52163 104.04 4.26562 103.976C4.00963 103.904 3.78563 103.804 3.59363 103.676C3.40163 103.54 3.23363 103.384 3.08963 103.208V106.28H2.06963ZM5.04563 103.172C5.50963 103.172 5.87763 103.068 6.14963 102.86C6.42163 102.644 6.61763 102.36 6.73763 102.008C6.86563 101.656 6.92963 101.268 6.92963 100.844C6.92963 100.412 6.86563 100.02 6.73763 99.668C6.61763 99.316 6.41763 99.036 6.13763 98.828C5.85763 98.62 5.48563 98.516 5.02163 98.516C4.60563 98.516 4.24963 98.624 3.95363 98.84C3.66563 99.048 3.44563 99.332 3.29363 99.692C3.14163 100.044 3.06563 100.432 3.06563 100.856C3.06563 101.296 3.13763 101.692 3.28163 102.044C3.42563 102.396 3.64563 102.672 3.94163 102.872C4.23763 103.072 4.60563 103.172 5.04563 103.172ZM12.0718 104.072C11.4078 104.072 10.8518 103.936 10.4038 103.664C9.95581 103.384 9.61981 103 9.39581 102.512C9.17981 102.024 9.07181 101.468 9.07181 100.844C9.07181 100.212 9.18381 99.656 9.40781 99.176C9.63181 98.688 9.96781 98.304 10.4158 98.024C10.8638 97.744 11.4238 97.604 12.0958 97.604C12.7598 97.604 13.3118 97.744 13.7518 98.024C14.1998 98.304 14.5318 98.688 14.7478 99.176C14.9718 99.656 15.0838 100.212 15.0838 100.844C15.0838 101.468 14.9718 102.024 14.7478 102.512C14.5238 103 14.1878 103.384 13.7398 103.664C13.2998 103.936 12.7438 104.072 12.0718 104.072ZM12.0718 103.172C12.5358 103.172 12.9118 103.068 13.1998 102.86C13.4958 102.652 13.7118 102.372 13.8478 102.02C13.9918 101.668 14.0638 101.276 14.0638 100.844C14.0638 100.412 13.9918 100.02 13.8478 99.668C13.7118 99.316 13.4958 99.036 13.1998 98.828C12.9118 98.62 12.5358 98.516 12.0718 98.516C11.6158 98.516 11.2398 98.62 10.9438 98.828C10.6558 99.036 10.4398 99.316 10.2958 99.668C10.1598 100.02 10.0918 100.412 10.0918 100.844C10.0918 101.276 10.1598 101.668 10.2958 102.02C10.4398 102.372 10.6558 102.652 10.9438 102.86C11.2398 103.068 11.6158 103.172 12.0718 103.172ZM16.4485 104V97.676H17.4325L17.4805 98.636C17.6245 98.404 17.8085 98.212 18.0325 98.06C18.2565 97.908 18.5005 97.796 18.7645 97.724C19.0365 97.644 19.3005 97.604 19.5565 97.604C20.1725 97.604 20.6525 97.732 20.9965 97.988C21.3485 98.244 21.5965 98.592 21.7405 99.032C21.8925 99.464 21.9685 99.956 21.9685 100.508V104H20.9485V100.784C20.9485 100.488 20.9285 100.204 20.8885 99.932C20.8565 99.66 20.7845 99.416 20.6725 99.2C20.5685 98.984 20.4165 98.816 20.2165 98.696C20.0165 98.568 19.7485 98.504 19.4125 98.504C18.9965 98.504 18.6405 98.62 18.3445 98.852C18.0565 99.084 17.8365 99.396 17.6845 99.788C17.5405 100.18 17.4685 100.62 17.4685 101.108V104H16.4485Z" fill="black"/>
<path d="M52.4414 104L50.4734 97.676H51.6254L53.1374 103.016L54.6974 97.676H56.0774L57.6494 103.016L59.1374 97.676H60.3014L58.3334 104H56.9414L55.3814 98.876L53.8214 104H52.4414ZM63.6227 104.072C62.9587 104.072 62.4907 103.892 62.2187 103.532C61.9547 103.172 61.8227 102.66 61.8227 101.996V98.576H60.7907V97.676H61.8227V95.78H62.8427V97.676H64.7867V98.576H62.8427V101.864C62.8427 102.104 62.8627 102.324 62.9027 102.524C62.9427 102.716 63.0267 102.872 63.1547 102.992C63.2827 103.104 63.4747 103.164 63.7307 103.172C63.9147 103.172 64.0747 103.14 64.2107 103.076C64.3547 103.012 64.4747 102.936 64.5707 102.848L65.0147 103.592C64.8787 103.704 64.7347 103.796 64.5827 103.868C64.4387 103.94 64.2867 103.992 64.1267 104.024C63.9747 104.056 63.8067 104.072 63.6227 104.072ZM68.7645 104.072C68.1005 104.072 67.5445 103.936 67.0965 103.664C66.6485 103.384 66.3125 103 66.0885 102.512C65.8725 102.024 65.7645 101.468 65.7645 100.844C65.7645 100.212 65.8765 99.656 66.1005 99.176C66.3245 98.688 66.6605 98.304 67.1085 98.024C67.5565 97.744 68.1165 97.604 68.7885 97.604C69.4525 97.604 70.0045 97.744 70.4445 98.024C70.8925 98.304 71.2245 98.688 71.4405 99.176C71.6645 99.656 71.7765 100.212 71.7765 100.844C71.7765 101.468 71.6645 102.024 71.4405 102.512C71.2165 103 70.8805 103.384 70.4325 103.664C69.9925 103.936 69.4365 104.072 68.7645 104.072ZM68.7645 103.172C69.2285 103.172 69.6045 103.068 69.8925 102.86C70.1885 102.652 70.4045 102.372 70.5405 102.02C70.6845 101.668 70.7565 101.276 70.7565 100.844C70.7565 100.412 70.6845 100.02 70.5405 99.668C70.4045 99.316 70.1885 99.036 69.8925 98.828C69.6045 98.62 69.2285 98.516 68.7645 98.516C68.3085 98.516 67.9325 98.62 67.6365 98.828C67.3485 99.036 67.1325 99.316 66.9885 99.668C66.8525 100.02 66.7845 100.412 66.7845 100.844C66.7845 101.276 66.8525 101.668 66.9885 102.02C67.1325 102.372 67.3485 102.652 67.6365 102.86C67.9325 103.068 68.3085 103.172 68.7645 103.172Z" fill="black"/>
<path d="M103.974 104.072C103.686 104.072 103.394 104.044 103.098 103.988C102.81 103.932 102.538 103.836 102.282 103.7C102.034 103.564 101.826 103.38 101.658 103.148C101.49 102.916 101.382 102.628 101.334 102.284H102.366C102.446 102.5 102.574 102.676 102.75 102.812C102.934 102.94 103.138 103.032 103.362 103.088C103.594 103.144 103.814 103.172 104.022 103.172C104.15 103.172 104.298 103.164 104.466 103.148C104.634 103.132 104.794 103.096 104.946 103.04C105.106 102.976 105.234 102.884 105.33 102.764C105.434 102.644 105.486 102.476 105.486 102.26C105.486 102.1 105.45 101.968 105.378 101.864C105.306 101.76 105.206 101.676 105.078 101.612C104.95 101.54 104.794 101.488 104.61 101.456C104.234 101.376 103.83 101.3 103.398 101.228C102.974 101.156 102.598 101.02 102.27 100.82C102.158 100.748 102.054 100.668 101.958 100.58C101.87 100.484 101.794 100.38 101.73 100.268C101.666 100.148 101.614 100.02 101.574 99.884C101.542 99.74 101.526 99.584 101.526 99.416C101.526 99.104 101.586 98.836 101.706 98.612C101.834 98.38 102.01 98.192 102.234 98.048C102.458 97.896 102.714 97.784 103.002 97.712C103.298 97.64 103.614 97.604 103.95 97.604C104.366 97.604 104.738 97.672 105.066 97.808C105.402 97.936 105.678 98.128 105.894 98.384C106.11 98.632 106.238 98.94 106.278 99.308H105.33C105.274 99.076 105.122 98.888 104.874 98.744C104.626 98.592 104.31 98.516 103.926 98.516C103.798 98.516 103.654 98.528 103.494 98.552C103.334 98.568 103.182 98.608 103.038 98.672C102.894 98.728 102.774 98.816 102.678 98.936C102.582 99.048 102.534 99.2 102.534 99.392C102.534 99.568 102.578 99.716 102.666 99.836C102.762 99.956 102.894 100.052 103.062 100.124C103.23 100.196 103.422 100.256 103.638 100.304C103.918 100.36 104.226 100.42 104.562 100.484C104.898 100.54 105.162 100.6 105.354 100.664C105.61 100.744 105.822 100.856 105.99 101C106.166 101.144 106.294 101.316 106.374 101.516C106.462 101.716 106.506 101.948 106.506 102.212C106.506 102.588 106.43 102.896 106.278 103.136C106.134 103.376 105.938 103.564 105.69 103.7C105.442 103.836 105.166 103.932 104.862 103.988C104.566 104.044 104.27 104.072 103.974 104.072ZM103.446 96.728L104.466 95.036H105.57L104.37 96.728H103.446ZM107.775 104V97.676H108.759L108.807 98.66C108.967 98.412 109.151 98.212 109.359 98.06C109.575 97.908 109.811 97.796 110.067 97.724C110.331 97.644 110.615 97.604 110.919 97.604C110.975 97.604 111.027 97.604 111.075 97.604C111.131 97.604 111.187 97.604 111.243 97.604V98.564H110.871C110.375 98.564 109.971 98.672 109.659 98.888C109.355 99.096 109.135 99.38 108.999 99.74C108.863 100.092 108.795 100.484 108.795 100.916V104H107.775ZM114.895 104.072C114.231 104.072 113.675 103.936 113.227 103.664C112.779 103.384 112.443 103 112.219 102.512C112.003 102.024 111.895 101.468 111.895 100.844C111.895 100.212 112.007 99.656 112.231 99.176C112.455 98.688 112.791 98.304 113.239 98.024C113.687 97.744 114.247 97.604 114.919 97.604C115.583 97.604 116.135 97.744 116.575 98.024C117.023 98.304 117.355 98.688 117.571 99.176C117.795 99.656 117.907 100.212 117.907 100.844C117.907 101.468 117.795 102.024 117.571 102.512C117.347 103 117.011 103.384 116.563 103.664C116.123 103.936 115.567 104.072 114.895 104.072ZM114.895 103.172C115.359 103.172 115.735 103.068 116.023 102.86C116.319 102.652 116.535 102.372 116.671 102.02C116.815 101.668 116.887 101.276 116.887 100.844C116.887 100.412 116.815 100.02 116.671 99.668C116.535 99.316 116.319 99.036 116.023 98.828C115.735 98.62 115.359 98.516 114.895 98.516C114.439 98.516 114.063 98.62 113.767 98.828C113.479 99.036 113.263 99.316 113.119 99.668C112.983 100.02 112.915 100.412 112.915 100.844C112.915 101.276 112.983 101.668 113.119 102.02C113.263 102.372 113.479 102.652 113.767 102.86C114.063 103.068 114.439 103.172 114.895 103.172Z" fill="black"/>
<path d="M151.025 104.072C150.361 104.072 149.809 103.936 149.369 103.664C148.937 103.384 148.613 103 148.397 102.512C148.189 102.024 148.085 101.472 148.085 100.856C148.085 100.256 148.193 99.712 148.409 99.224C148.633 98.728 148.969 98.336 149.417 98.048C149.873 97.752 150.449 97.604 151.145 97.604C151.577 97.604 151.961 97.676 152.297 97.82C152.641 97.964 152.925 98.176 153.149 98.456C153.373 98.728 153.529 99.072 153.617 99.488H152.573C152.453 99.136 152.261 98.888 151.997 98.744C151.741 98.592 151.437 98.516 151.085 98.516C150.605 98.516 150.221 98.628 149.933 98.852C149.645 99.076 149.433 99.368 149.297 99.728C149.169 100.08 149.105 100.456 149.105 100.856C149.105 101.272 149.173 101.656 149.309 102.008C149.445 102.36 149.657 102.644 149.945 102.86C150.233 103.068 150.605 103.172 151.061 103.172C151.397 103.172 151.713 103.1 152.009 102.956C152.313 102.812 152.513 102.556 152.609 102.188H153.665C153.585 102.62 153.413 102.976 153.149 103.256C152.893 103.536 152.577 103.744 152.201 103.88C151.833 104.008 151.441 104.072 151.025 104.072ZM154.718 104V103.136L158.498 98.576H154.718V97.676H159.806V98.528L155.99 103.112H159.806V104H154.718ZM162.477 104L160.509 97.676H161.661L163.173 103.016L164.733 97.676H166.113L167.685 103.016L169.173 97.676H170.337L168.369 104H166.977L165.417 98.876L163.857 104H162.477Z" fill="black"/>
<path d="M201.85 104.12C200.954 104.12 200.143 103.928 199.418 103.544C198.693 103.139 198.117 102.584 197.69 101.88C197.263 101.155 197.05 100.323 197.05 99.384C197.05 97.9333 197.498 96.7813 198.394 95.928C199.311 95.0533 200.442 94.616 201.786 94.616C202.725 94.616 203.557 94.8187 204.282 95.224C205.007 95.6293 205.573 96.1947 205.978 96.92C206.405 97.624 206.618 98.4453 206.618 99.384C206.618 100.813 206.17 101.965 205.274 102.84C204.378 103.693 203.237 104.12 201.85 104.12Z" fill="black"/>
<path d="M237.209 106.28V97.676H238.181L238.229 98.624C238.445 98.296 238.737 98.044 239.105 97.868C239.481 97.692 239.885 97.604 240.317 97.604C240.957 97.604 241.481 97.748 241.889 98.036C242.297 98.316 242.597 98.7 242.789 99.188C242.989 99.676 243.089 100.228 243.089 100.844C243.089 101.46 242.989 102.012 242.789 102.5C242.589 102.988 242.281 103.372 241.865 103.652C241.449 103.932 240.917 104.072 240.269 104.072C239.949 104.072 239.661 104.04 239.405 103.976C239.149 103.904 238.925 103.804 238.733 103.676C238.541 103.54 238.373 103.384 238.229 103.208V106.28H237.209ZM240.185 103.172C240.649 103.172 241.017 103.068 241.289 102.86C241.561 102.644 241.757 102.36 241.877 102.008C242.005 101.656 242.069 101.268 242.069 100.844C242.069 100.412 242.005 100.02 241.877 99.668C241.757 99.316 241.557 99.036 241.277 98.828C240.997 98.62 240.625 98.516 240.161 98.516C239.745 98.516 239.389 98.624 239.093 98.84C238.805 99.048 238.585 99.332 238.433 99.692C238.281 100.044 238.205 100.432 238.205 100.856C238.205 101.296 238.277 101.692 238.421 102.044C238.565 102.396 238.785 102.672 239.081 102.872C239.377 103.072 239.745 103.172 240.185 103.172ZM244.451 104V97.676H245.471V104H244.451ZM244.955 96.74C244.747 96.74 244.579 96.676 244.451 96.548C244.331 96.42 244.271 96.256 244.271 96.056C244.271 95.856 244.335 95.696 244.463 95.576C244.591 95.448 244.755 95.384 244.955 95.384C245.139 95.384 245.299 95.448 245.435 95.576C245.579 95.704 245.651 95.864 245.651 96.056C245.651 96.256 245.583 96.42 245.447 96.548C245.311 96.676 245.147 96.74 244.955 96.74ZM249.104 104.072C248.816 104.072 248.536 104.036 248.264 103.964C248 103.884 247.76 103.768 247.544 103.616C247.336 103.456 247.168 103.26 247.04 103.028C246.92 102.788 246.86 102.512 246.86 102.2C246.86 101.84 246.924 101.536 247.052 101.288C247.188 101.04 247.368 100.844 247.592 100.7C247.816 100.556 248.076 100.452 248.372 100.388C248.668 100.324 248.976 100.292 249.296 100.292H251.156C251.156 99.932 251.104 99.62 251 99.356C250.904 99.092 250.744 98.888 250.52 98.744C250.296 98.592 250 98.516 249.632 98.516C249.408 98.516 249.2 98.54 249.008 98.588C248.816 98.636 248.652 98.712 248.516 98.816C248.38 98.92 248.28 99.06 248.216 99.236H247.124C247.18 98.948 247.288 98.704 247.448 98.504C247.616 98.296 247.816 98.128 248.048 98C248.288 97.864 248.544 97.764 248.816 97.7C249.088 97.636 249.36 97.604 249.632 97.604C250.544 97.604 251.192 97.872 251.576 98.408C251.96 98.944 252.152 99.668 252.152 100.58V104H251.3L251.24 103.196C251.064 103.436 250.852 103.62 250.604 103.748C250.356 103.876 250.1 103.96 249.836 104C249.58 104.048 249.336 104.072 249.104 104.072ZM249.2 103.172C249.6 103.172 249.944 103.108 250.232 102.98C250.528 102.844 250.756 102.648 250.916 102.392C251.076 102.136 251.156 101.824 251.156 101.456V101.144H250.04C249.776 101.144 249.516 101.148 249.26 101.156C249.004 101.164 248.772 101.196 248.564 101.252C248.356 101.308 248.188 101.404 248.06 101.54C247.94 101.676 247.88 101.872 247.88 102.128C247.88 102.368 247.94 102.564 248.06 102.716C248.188 102.868 248.352 102.984 248.552 103.064C248.76 103.136 248.976 103.172 249.2 103.172ZM251.792 106.688C251.304 106.68 250.924 106.552 250.652 106.304C250.38 106.064 250.244 105.74 250.244 105.332C250.244 104.972 250.36 104.664 250.592 104.408C250.824 104.152 251.092 103.956 251.396 103.82L252.152 103.94C251.888 104.076 251.652 104.256 251.444 104.48C251.236 104.704 251.132 104.948 251.132 105.212C251.132 105.436 251.2 105.608 251.336 105.728C251.48 105.856 251.668 105.92 251.9 105.92C251.996 105.92 252.092 105.908 252.188 105.884C252.284 105.86 252.38 105.824 252.476 105.776L252.644 106.484C252.5 106.564 252.36 106.616 252.224 106.64C252.096 106.672 251.952 106.688 251.792 106.688Z" fill="black"/>
<path d="M286.366 104.072C286.078 104.072 285.786 104.044 285.49 103.988C285.202 103.932 284.93 103.836 284.674 103.7C284.426 103.564 284.218 103.38 284.05 103.148C283.882 102.916 283.774 102.628 283.726 102.284H284.758C284.838 102.5 284.966 102.676 285.142 102.812C285.326 102.94 285.53 103.032 285.754 103.088C285.986 103.144 286.206 103.172 286.414 103.172C286.542 103.172 286.69 103.164 286.858 103.148C287.026 103.132 287.186 103.096 287.338 103.04C287.498 102.976 287.626 102.884 287.722 102.764C287.826 102.644 287.878 102.476 287.878 102.26C287.878 102.1 287.842 101.968 287.77 101.864C287.698 101.76 287.598 101.676 287.47 101.612C287.342 101.54 287.186 101.488 287.002 101.456C286.626 101.376 286.222 101.3 285.79 101.228C285.366 101.156 284.99 101.02 284.662 100.82C284.55 100.748 284.446 100.668 284.35 100.58C284.262 100.484 284.186 100.38 284.122 100.268C284.058 100.148 284.006 100.02 283.966 99.884C283.934 99.74 283.918 99.584 283.918 99.416C283.918 99.104 283.978 98.836 284.098 98.612C284.226 98.38 284.402 98.192 284.626 98.048C284.85 97.896 285.106 97.784 285.394 97.712C285.69 97.64 286.006 97.604 286.342 97.604C286.758 97.604 287.13 97.672 287.458 97.808C287.794 97.936 288.07 98.128 288.286 98.384C288.502 98.632 288.63 98.94 288.67 99.308H287.722C287.666 99.076 287.514 98.888 287.266 98.744C287.018 98.592 286.702 98.516 286.318 98.516C286.19 98.516 286.046 98.528 285.886 98.552C285.726 98.568 285.574 98.608 285.43 98.672C285.286 98.728 285.166 98.816 285.07 98.936C284.974 99.048 284.926 99.2 284.926 99.392C284.926 99.568 284.97 99.716 285.058 99.836C285.154 99.956 285.286 100.052 285.454 100.124C285.622 100.196 285.814 100.256 286.03 100.304C286.31 100.36 286.618 100.42 286.954 100.484C287.29 100.54 287.554 100.6 287.746 100.664C288.002 100.744 288.214 100.856 288.382 101C288.558 101.144 288.686 101.316 288.766 101.516C288.854 101.716 288.898 101.948 288.898 102.212C288.898 102.588 288.822 102.896 288.67 103.136C288.526 103.376 288.33 103.564 288.082 103.7C287.834 103.836 287.558 103.932 287.254 103.988C286.958 104.044 286.662 104.072 286.366 104.072ZM292.927 104.072C292.263 104.072 291.707 103.936 291.259 103.664C290.811 103.384 290.475 103 290.251 102.512C290.035 102.024 289.927 101.468 289.927 100.844C289.927 100.212 290.039 99.656 290.263 99.176C290.487 98.688 290.823 98.304 291.271 98.024C291.719 97.744 292.279 97.604 292.951 97.604C293.615 97.604 294.167 97.744 294.607 98.024C295.055 98.304 295.387 98.688 295.603 99.176C295.827 99.656 295.939 100.212 295.939 100.844C295.939 101.468 295.827 102.024 295.603 102.512C295.379 103 295.043 103.384 294.595 103.664C294.155 103.936 293.599 104.072 292.927 104.072ZM292.927 103.172C293.391 103.172 293.767 103.068 294.055 102.86C294.351 102.652 294.567 102.372 294.703 102.02C294.847 101.668 294.919 101.276 294.919 100.844C294.919 100.412 294.847 100.02 294.703 99.668C294.567 99.316 294.351 99.036 294.055 98.828C293.767 98.62 293.391 98.516 292.927 98.516C292.471 98.516 292.095 98.62 291.799 98.828C291.511 99.036 291.295 99.316 291.151 99.668C291.015 100.02 290.947 100.412 290.947 100.844C290.947 101.276 291.015 101.668 291.151 102.02C291.295 102.372 291.511 102.652 291.799 102.86C292.095 103.068 292.471 103.172 292.927 103.172ZM300.292 104.072C300.004 104.072 299.736 104.04 299.488 103.976C299.248 103.904 299.028 103.804 298.828 103.676C298.636 103.548 298.468 103.4 298.324 103.232L298.276 104H297.304V95.516H298.324V98.588C298.532 98.268 298.828 98.024 299.212 97.856C299.604 97.688 300.004 97.604 300.412 97.604C301.052 97.604 301.576 97.748 301.984 98.036C302.392 98.316 302.692 98.7 302.884 99.188C303.084 99.668 303.184 100.212 303.184 100.82C303.184 101.42 303.08 101.968 302.872 102.464C302.664 102.952 302.348 103.344 301.924 103.64C301.5 103.928 300.956 104.072 300.292 104.072ZM300.28 103.172C300.744 103.172 301.112 103.068 301.384 102.86C301.656 102.644 301.852 102.36 301.972 102.008C302.1 101.656 302.164 101.268 302.164 100.844C302.164 100.412 302.1 100.02 301.972 99.668C301.852 99.316 301.652 99.036 301.372 98.828C301.092 98.62 300.72 98.516 300.256 98.516C299.84 98.516 299.484 98.632 299.188 98.864C298.9 99.096 298.68 99.392 298.528 99.752C298.376 100.112 298.3 100.48 298.3 100.856C298.3 101.264 298.364 101.644 298.492 101.996C298.628 102.348 298.84 102.632 299.128 102.848C299.424 103.064 299.808 103.172 300.28 103.172Z" fill="black"/>
</g>
<g filter="url(#filter0_d_77_1331)">
<circle cx="201" cy="68" r="5" fill="#D9D9D9"/>
<circle cx="201" cy="68" r="4.5" stroke="white"/>
</g>
</g>
<defs>
<filter id="filter0_d_77_1331" x="191.7" y="58.7" width="18.6" height="18.6" filterUnits="userSpaceOnUse" color-interpolation-filters="sRGB">
<feFlood flood-opacity="0" result="BackgroundImageFix"/>
<feColorMatrix in="SourceAlpha" type="matrix" values="0 0 0 0 0 0 0 0 0 0 0 0 0 0 0 0 0 0 127 0" result="hardAlpha"/>
<feOffset/>
<feGaussianBlur stdDeviation="2.15"/>
<feComposite in2="hardAlpha" operator="out"/>
<feColorMatrix type="matrix" values="0 0 0 0 0 0 0 0 0 0 0 0 0 0 0 0 0 0 0.15 0"/>
<feBlend mode="normal" in2="BackgroundImageFix" result="effect1_dropShadow_77_1331"/>
<feBlend mode="normal" in="SourceGraphic" in2="effect1_dropShadow_77_1331" result="shape"/>
</filter>
<clipPath id="clip0_77_1331">
<rect width="306" height="125" fill="white"/>
</clipPath>
<clipPath id="clip1_77_1331">
<rect width="306" height="49" fill="white" transform="translate(0 76)"/>
</clipPath>
</defs>
</svg>
