<svg width="20" height="20" viewBox="0 0 20 20" fill="none" xmlns="http://www.w3.org/2000/svg">
<path d="M12 3.28988H11C11 3.7323 11.2907 4.12213 11.7148 4.24833L12 3.28988ZM13.3302 3.84137L12.8538 4.72058C13.2429 4.93144 13.7243 4.86143 14.0373 4.54847L13.3302 3.84137ZM16.1586 6.66978L15.4515 5.96268C15.1386 6.27563 15.0686 6.75709 15.2794 7.14621L16.1586 6.66978ZM16.7101 8L15.7517 8.2853C15.8779 8.7093 16.2677 9 16.7101 9V8ZM16.7101 12V11C16.2677 11 15.8779 11.2907 15.7517 11.7148L16.7101 12ZM16.1586 13.3302L15.2794 12.8538C15.0686 13.2429 15.1386 13.7244 15.4515 14.0373L16.1586 13.3302ZM13.3302 16.1586L14.0373 15.4515C13.7243 15.1386 13.2429 15.0686 12.8538 15.2794L13.3302 16.1586ZM12 16.7101L11.7148 15.7517C11.2907 15.8779 11 16.2677 11 16.7101H12ZM8 16.7101H9C9 16.2677 8.7093 15.8779 8.2853 15.7517L8 16.7101ZM6.6698 16.1586L7.14623 15.2794C6.7571 15.0685 6.27565 15.1385 5.96269 15.4515L6.6698 16.1586ZM3.84138 13.3302L4.54849 14.0373C4.86144 13.7243 4.93146 13.2429 4.7206 12.8537L3.84138 13.3302ZM3.28989 12L4.24835 11.7147C4.12215 11.2907 3.73231 11 3.28989 11V12ZM3.28989 8V9C3.73231 9 4.12215 8.7093 4.24835 8.2852L3.28989 8ZM3.84138 6.66982L4.7206 7.14625C4.93146 6.75712 4.86145 6.27567 4.54849 5.96272L3.84138 6.66982ZM6.6698 3.84139L5.9627 4.54849C6.27565 4.86145 6.7571 4.93146 7.14623 4.7206L6.6698 3.84139ZM8 3.28988L8.2853 4.24833C8.7093 4.12213 9 3.7323 9 3.28988H8ZM9 0C7.89545 0 7.00002 0.89543 7.00002 2H9V0ZM11 0H9V2H11V0ZM13 2C13 0.89543 12.1046 0 11 0V2H13ZM13 3.28988V2H11V3.28988H13ZM13.8066 2.96215C13.3271 2.70233 12.8179 2.48994 12.2853 2.33143L11.7148 4.24833C12.1132 4.36691 12.4944 4.52587 12.8538 4.72058L13.8066 2.96215ZM13.5355 2.2218L12.6231 3.13426L14.0373 4.54847L14.9498 3.63601L13.5355 2.2218ZM16.364 2.2218C15.5829 1.44075 14.3166 1.44075 13.5355 2.2218L14.9498 3.63601L16.364 2.2218ZM17.7782 3.63602L16.364 2.2218L14.9498 3.63601L16.364 5.05023L17.7782 3.63602ZM17.7782 6.46444C18.5592 5.68339 18.5592 4.41706 17.7782 3.63602L16.364 5.05023L17.7782 6.46444ZM16.8657 7.37689L17.7782 6.46444L16.364 5.05023L15.4515 5.96268L16.8657 7.37689ZM17.6686 7.71475C17.5101 7.18211 17.2977 6.67285 17.0378 6.19335L15.2794 7.14621C15.4741 7.50555 15.6331 7.8868 15.7517 8.2853L17.6686 7.71475ZM16.7101 9H18V7H16.7101V9ZM18 9H20C20 7.89543 19.1046 7 18 7V9ZM18 9V11H20V9H18ZM18 11V13C19.1046 13 20 12.1046 20 11H18ZM18 11H16.7101V13H18V11ZM17.0378 13.8066C17.2977 13.3271 17.5101 12.8179 17.6686 12.2852L15.7517 11.7148C15.6331 12.1132 15.4741 12.4944 15.2794 12.8538L17.0378 13.8066ZM17.7782 13.5356L16.8657 12.6231L15.4515 14.0373L16.364 14.9498L17.7782 13.5356ZM17.7782 16.364C18.5592 15.5829 18.5592 14.3166 17.7782 13.5356L16.364 14.9498L17.7782 16.364ZM16.364 17.7782L17.7782 16.364L16.364 14.9498L14.9498 16.364L16.364 17.7782ZM13.5355 17.7782C14.3166 18.5592 15.5829 18.5592 16.364 17.7782L14.9498 16.364L13.5355 17.7782ZM12.6231 16.8657L13.5355 17.7782L14.9498 16.364L14.0373 15.4515L12.6231 16.8657ZM12.2853 17.6686C12.8179 17.5101 13.3271 17.2977 13.8066 17.0378L12.8538 15.2794C12.4944 15.4741 12.1132 15.6331 11.7148 15.7517L12.2853 17.6686ZM13 18V16.7101H11V18H13ZM11 20C12.1046 20 13 19.1046 13 18H11V20ZM9 20H11V18H9V20ZM7.00002 18C7.00002 19.1046 7.89545 20 9 20V18H7.00002ZM7.00002 16.7101V18H9V16.7101H7.00002ZM6.19337 17.0378C6.67287 17.2977 7.18213 17.5101 7.71477 17.6686L8.2853 15.7517C7.88681 15.6331 7.50557 15.4741 7.14623 15.2794L6.19337 17.0378ZM6.46447 17.7782L7.3769 16.8657L5.96269 15.4515L5.05026 16.3639L6.46447 17.7782ZM3.63604 17.7782C4.41709 18.5592 5.68342 18.5593 6.46447 17.7782L5.05026 16.3639L3.63604 17.7782ZM2.22183 16.3639L3.63604 17.7782L5.05026 16.3639L3.63604 14.9497L2.22183 16.3639ZM2.22183 13.5355C1.44078 14.3166 1.44078 15.5829 2.22183 16.3639L3.63604 14.9497L2.22183 13.5355ZM3.13427 12.6231L2.22183 13.5355L3.63604 14.9497L4.54849 14.0373L3.13427 12.6231ZM2.33144 12.2852C2.48996 12.8179 2.70234 13.3271 2.96217 13.8066L4.7206 12.8537C4.52589 12.4944 4.36693 12.1132 4.24835 11.7147L2.33144 12.2852ZM3.28989 11H2V13H3.28989V11ZM2 11H0C0 12.1046 0.89543 13 2 13V11ZM2 11V9H0V11H2ZM2 9V7C0.89543 7 0 7.89543 0 9H2ZM2 9H3.28989V7H2V9ZM2.96217 6.1934C2.70235 6.67288 2.48996 7.18213 2.33144 7.71475L4.24835 8.2852C4.36693 7.88681 4.52589 7.50558 4.7206 7.14625L2.96217 6.1934ZM2.22183 6.46449L3.13428 7.37693L4.54849 5.96272L3.63605 5.05027L2.22183 6.46449ZM2.22183 3.63606C1.44078 4.41711 1.44079 5.68344 2.22183 6.46449L3.63605 5.05027L2.22183 3.63606ZM3.63605 2.22185L2.22183 3.63606L3.63605 5.05027L5.05026 3.63606L3.63605 2.22185ZM6.46447 2.22185C5.68343 1.4408 4.4171 1.4408 3.63605 2.22185L5.05026 3.63606L6.46447 2.22185ZM7.37691 3.13428L6.46447 2.22185L5.05026 3.63606L5.9627 4.54849L7.37691 3.13428ZM7.71477 2.33143C7.18213 2.48995 6.67287 2.70234 6.19337 2.96218L7.14623 4.7206C7.50557 4.52588 7.88681 4.36692 8.2853 4.24833L7.71477 2.33143ZM7.00002 2V3.28988H9V2H7.00002Z" fill="black"/>
<path d="M10 13C11.6569 13 13 11.6569 13 10C13 8.34315 11.6569 7 10 7C8.34315 7 7 8.34315 7 10C7 11.6569 8.34315 13 10 13Z" stroke="black" stroke-width="2" stroke-linecap="round" stroke-linejoin="round"/>
</svg>
