<svg width="16" height="20" viewBox="0 0 16 20" fill="none" xmlns="http://www.w3.org/2000/svg">
<path d="M4 7.00001L12 7C13.6569 7 15 8.3431 15 10V16C15 17.6569 13.6569 19 12 19H4C2.34315 19 1 17.6569 1 16V10C1 8.3431 2.34315 7.00001 4 7.00001ZM4 7.00001V4C4 2.34315 5.34314 1 7 1H9.4258C10.8475 1 12 2.15252 12 3.57422M8 12V15M9 12C9 12.5523 8.5523 13 8 13C7.4477 13 7 12.5523 7 12C7 11.4477 7.4477 11 8 11C8.5523 11 9 11.4477 9 12Z" stroke="#7395CD" stroke-width="2" stroke-linecap="round" stroke-linejoin="round"/>
</svg>
